<?xml version="1.0" encoding="UTF-8"?>
<svg xmlns="http://www.w3.org/2000/svg" xml:space="preserve" version="1.1"
viewBox="0 0 981.05 662.25"
preserveAspectRatio="xMidYMid meet"
style="shape-rendering:geometricPrecision; text-rendering:geometricPrecision; image-rendering:optimizeQuality; fill-rule:evenodd; clip-rule:evenodd"
xmlns:xlink="http://www.w3.org/1999/xlink">
 <defs>
  <style type="text/css"><![CDATA[
    .car-body { fill:none; stroke:#1F5AAD; stroke-width:1.5; vector-effect:non-scaling-stroke; stroke-miterlimit:10; }
    .glass-window { fill:#C8DBED; stroke:#1F5AAD; stroke-width:1.5; vector-effect:non-scaling-stroke; stroke-miterlimit:10; cursor:pointer; transition:fill 180ms ease; pointer-events:all; }
    .glass-window:hover { fill:#B8E5B5; }
    .glass-window.has-damage { fill:#B8E5B5; }
    .glass-window.selected { fill:#B8E5B5; }
  ]]></style>
 </defs>
 <g id="Layer_x0020_1">
  <path class="car-body" d="M185.57 28.13c-18.92,13.66 -26.3,29.18 -37.92,48.47l-58.84 97.64c-25.09,50.79 -49.85,40.06 -67.47,101.85 -20.36,71.37 -24.13,140.27 -16.08,207.41 -3.15,28.74 2.95,49.28 16.9,64.22l0 70.23c0,23.64 19.35,42.99 42.99,42.99l51.26 0c23.64,0 42.99,-19.35 42.99,-42.99l0 -29.5c11.08,0.98 22.64,1.86 34.66,2.71 181.31,12.87 411.66,12.87 592.97,0 14.31,-1.02 27.98,-2.07 40.96,-3.28l0 30.07c0,23.64 19.35,42.99 42.99,42.99l51.26 0c23.64,0 42.99,-19.35 42.99,-42.99l0 -78.2c9.41,-14.06 13.22,-32.3 10.59,-56.25 8.05,-67.13 4.28,-136.03 -16.08,-207.41 -17.62,-61.79 -42.38,-51.06 -67.47,-101.85l-58.84 -97.64c-11.62,-19.29 -19,-34.81 -37.92,-48.47 -55.63,-40.15 -566.83,-31.09 -609.91,0z"/>
  <path id="rear_window" class="glass-window" data-glass-name="Rear Window" d="M847.33 167.62c-228.86,-18.5 -463.29,-19.49 -704.25,0l35.69 -101.14c4.23,-12.87 12.3,-20.62 23.8,-23.8 193.32,-17.7 382.78,-17.75 566.67,0 17.63,1.17 30.26,7.31 37.92,19.33l40.16 105.6z"/>
  <line class="car-body" x1="248.84" y1="307.87" x2="722.26" y2="307.87"/>
 </g>
</svg>
