<?xml version="1.0" encoding="UTF-8"?>
<!DOCTYPE svg PUBLIC "-//W3C//DTD SVG 1.1//EN" "http://www.w3.org/Graphics/SVG/1.1/DTD/svg11.dtd">
<!-- Creator: CorelDRAW 2026 -->
<svg xmlns="http://www.w3.org/2000/svg" xml:space="preserve" width="27.1308mm" height="60.6247mm" version="1.1" style="shape-rendering:geometricPrecision; text-rendering:geometricPrecision; image-rendering:optimizeQuality; fill-rule:evenodd; clip-rule:evenodd"
viewBox="0 0 355.53 794.44"
 xmlns:xlink="http://www.w3.org/1999/xlink"
 xmlns:xodm="http://www.corel.com/coreldraw/odm/2003">
 <defs>
  <style type="text/css">
   <![CDATA[
    .str0 {stroke:fuchsia;stroke-width:1.31;stroke-miterlimit:22.9256}
    .fil0 {fill:none}
   ]]>
  </style>
 </defs>
 <g id="Layer_x0020_1">
  <metadata id="CorelCorpID_0Corel-Layer"/>
  <path class="fil0 str0" d="M161.03 0.66l33.41 0c103.7,7.88 144.36,51.67 138.07,122.2l0.11 149.32 16.93 11c7.98,6.94 6.14,12.47 0,17.39l-16.92 -6.62 0.3 398.29c-5.29,66.71 -38.52,100.33 -99.13,101.55l-115.68 -0.08c-66.6,1.81 -89.38,-41.09 -96.1,-100.28l0 -399.14 -16.05 6.28c-6.14,-4.92 -7.98,-10.45 0,-17.39l16.05 -10.42 0 -148.85c-5.87,-82.7 48.81,-117.13 139.01,-123.25z"/>
  <rect class="fil0 str0" x="96.34" y="374.86" width="161.51" height="195.22" rx="9.99" ry="10.34"/>
 </g>
</svg>
