<?xml version="1.0" encoding="UTF-8"?>
<svg xmlns="http://www.w3.org/2000/svg" xml:space="preserve" version="1.1"
viewBox="0 0 794.44 355.53"
preserveAspectRatio="xMidYMid meet"
style="shape-rendering:geometricPrecision; text-rendering:geometricPrecision; image-rendering:optimizeQuality; fill-rule:evenodd; clip-rule:evenodd"
xmlns:xlink="http://www.w3.org/1999/xlink">
 <defs>
  <style type="text/css"><![CDATA[
    .car-body { fill:none; stroke:#1F5AAD; stroke-width:1.5; vector-effect:non-scaling-stroke; stroke-miterlimit:10; }
    .glass-window { fill:#C8DBED; stroke:#1F5AAD; stroke-width:1.5; vector-effect:non-scaling-stroke; stroke-miterlimit:10; cursor:pointer; transition:fill 180ms ease; pointer-events:all; }
    .glass-window:hover { fill:#B8E5B5; }
    .glass-window.has-damage { fill:#B8E5B5; }
    .glass-window.selected { fill:#B8E5B5; }
  ]]></style>
 </defs>
 <g id="Layer_x0020_1" transform="translate(0, 355.53) rotate(-90)">
  <path class="car-body" d="M161.03 0.66l33.41 0c103.7,7.88 144.36,51.67 138.07,122.2l0.11 149.32 16.93 11c7.98,6.94 6.14,12.47 0,17.39l-16.92 -6.62 0.3 398.29c-5.29,66.71 -38.52,100.33 -99.13,101.55l-115.68 -0.08c-66.6,1.81 -89.38,-41.09 -96.1,-100.28l0 -399.14 -16.05 6.28c-6.14,-4.92 -7.98,-10.45 0,-17.39l16.05 -10.42 0 -148.85c-5.87,-82.7 48.81,-117.13 139.01,-123.25z"/>
  <rect id="sunroof_glass" class="glass-window" data-glass-name="Sunroof Glass" role="button" tabindex="0" aria-label="Sunroof Glass" x="96.34" y="374.86" width="161.51" height="195.22" rx="9.99" ry="10.34"><title>Sunroof Glass</title></rect>
 </g>
</svg>
